
        <svg xmlns="http://www.w3.org/2000/svg" xmlns:xlink="http://www.w3.org/1999/xlink" version="1.1" width="3187.5" 
        height="1121.87511897088" viewBox="0 0 3187.5 1121.87511897088">
			<rect fill="#AA0000" width="3187.5" height="1121.87511897088"/>
			<g transform="scale(9.375) translate(10, 10)">
				<defs id="SvgjsDefs1221"><linearGradient id="SvgjsLinearGradient1226"><stop id="SvgjsStop1227" stop-color="#8f5e25" offset="0"></stop><stop id="SvgjsStop1228" stop-color="#fbf4a1" offset="0.5"></stop><stop id="SvgjsStop1229" stop-color="#8f5e25" offset="1"></stop></linearGradient><linearGradient id="SvgjsLinearGradient1230"><stop id="SvgjsStop1231" stop-color="#8f5e25" offset="0"></stop><stop id="SvgjsStop1232" stop-color="#fbf4a1" offset="0.5"></stop><stop id="SvgjsStop1233" stop-color="#8f5e25" offset="1"></stop></linearGradient></defs><g id="SvgjsG1222" featureKey="symbolFeature-0" transform="matrix(1.0000000762939512,0,0,1.0000000762939512,2.3841859729145793e-7,-0.1666653283436072)" fill="url(#SvgjsLinearGradient1226)"><title xmlns="http://www.w3.org/2000/svg">Processor</title><path xmlns="http://www.w3.org/2000/svg" style="" d="m 10.666665,96.499985 0,-3.3333 -1.916665,0 -1.916665,0 0,-1.83335 0,-1.83334 -3.41667,0 -3.416665,0 0,-2.16666 0,-2.16667 3.416665,0 3.41667,0 0,-2 0,-2 -3.41667,0 -3.416665,0 0,-2.16667 0,-2.16666 3.416665,0 3.41667,0 0,-2 0,-2 -3.41667,0 -3.416665,0 0,-2.16667 0,-2.16666 3.416665,0 3.41667,0 0,-1.91667 0,-1.91667 -3.41667,0 -3.416665,0 0,-2.16666 0,-2.16667 3.416665,0 3.41667,0 0,-2 0,-2 -3.41667,0 -3.416665,0 0,-2.16667 0,-2.16667 3.416665,0 3.41667,0 0,-1.916665 0,-1.916665 -3.41667,0 L 0,48.166665 0,46 l 0,-2.16667 3.416665,0 3.41667,0 0,-2 0,-2 -3.41667,0 L 0,39.83333 0,37.666665 0,35.5 l 3.416665,0 3.41667,0 0,-1.91667 0,-1.916665 -3.41667,0 L 0,31.666665 0,29.5 l 0,-2.16667 3.416665,0 3.41667,0 0,-2 0,-2 -3.41667,0 L 0,23.33333 0,21.166665 0,19 l 3.416665,0 3.41667,0 0,-2 0,-2 -3.41667,0 L 0,15 l 0,-2.16667 0,-2.166665 3.416665,0 3.41667,0 0,-1.916665 0,-1.91667 1.916665,0 1.916665,0 0,-3.33333 0,-3.333335 2.083335,0 2.083335,0 0,3.333335 0,3.33333 2.08333,0 2.083335,0 0,-3.33333 0,-3.333335 2.083335,0 2.08333,0 0,3.333335 0,3.33333 2.083335,0 2.083335,0 0,-3.33333 0,-3.333335 2.08333,0 2.083335,0 0,3.333335 0,3.33333 2,0 2,0 0,-3.33333 0,-3.333335 2.08333,0 2.083335,0 0,3.333335 0,3.33333 2.083335,0 2.08333,0 0,-3.33333 0,-3.333335 2.083335,0 2.083335,0 0,3.333335 0,3.33333 2,0 2.000005,0 0,-3.33333 0,-3.333335 2.08333,0 2.083335,0 0,3.333335 0,3.33333 2.083335,0 2.08333,0 0,-3.33333 0,-3.333335 2.083335,0 2.083335,0 0,3.333335 0,3.33333 2,0 2,0 0,-3.33333 0,-3.333335 2.08333,0 2.083335,0 0,3.333335 0,3.33333 2.083335,0 2.08333,0 0,-3.33333 0,-3.333335 2.083335,0 2.083335,0 0,3.333335 0,3.33333 2.08333,0 2.083335,0 0,-3.33333 0,-3.333335 2.083335,0 2.08333,0 0,3.333335 0,3.33333 1.91667,0 1.916665,0 0,1.91667 0,1.916665 3.416665,0 3.416665,0 0,2.166665 0,2.16667 -3.416665,0 -3.416665,0 0,2 0,2 3.416665,0 3.416665,0 0,2.166665 0,2.166665 -3.416665,0 -3.416665,0 0,2 0,2 3.416665,0 3.416665,0 0,2.16667 0,2.166665 -3.416665,0 -3.416665,0 0,1.916665 0,1.91667 3.416665,0 3.416665,0 0,2.166665 0,2.166665 -3.416665,0 -3.416665,0 0,2 0,2 3.416665,0 3.416665,0 0,2.16667 0,2.166665 -3.416665,0 -3.416665,0 0,1.916665 0,1.916665 3.416665,0 3.416665,0 0,2.16667 0,2.16667 -3.416665,0 -3.416665,0 0,2 0,2 3.416665,0 3.416665,0 0,2.16667 0,2.16666 -3.416665,0 -3.416665,0 0,1.91667 0,1.91667 3.416665,0 3.416665,0 0,2.16667 0,2.16666 -3.416665,0 -3.416665,0 0,2 0,2 3.416665,0 3.416665,0 0,2.16666 0,2.16667 -3.416665,0 -3.416665,0 0,2 0,2 3.416665,0 3.416665,0 0,2.16667 0,2.16666 -3.416665,0 -3.416665,0 0,1.83334 0,1.83335 -1.916665,0 -1.91667,0 0,3.3333 0,3.33335 -2.08333,0 -2.083335,0 0,-3.33335 0,-3.3333 -2.083335,0 -2.08333,0 0,3.3333 0,3.33335 -2.083335,0 -2.083335,0 0,-3.33335 0,-3.3333 -2.08333,0 -2.083335,0 0,3.3333 0,3.33335 -2.083335,0 -2.08333,0 0,-3.33335 0,-3.3333 -2,0 -2,0 0,3.3333 0,3.33335 -2.083335,0 -2.083335,0 0,-3.33335 0,-3.3333 -2.08333,0 -2.083335,0 0,3.3333 0,3.33335 -2.083335,0 -2.08333,0 0,-3.33335 0,-3.3333 -2.000005,0 -2,0 0,3.3333 0,3.33335 -2.083335,0 -2.083335,0 0,-3.33335 0,-3.3333 -2.08333,0 -2.083335,0 0,3.3333 0,3.33335 -2.083335,0 -2.08333,0 0,-3.33335 0,-3.3333 -2,0 -2,0 0,3.3333 0,3.33335 -2.083335,0 -2.08333,0 0,-3.33335 0,-3.3333 -2.083335,0 -2.083335,0 0,3.3333 0,3.33335 -2.08333,0 -2.083335,0 0,-3.33335 0,-3.3333 -2.083335,0 -2.08333,0 0,3.3333 0,3.33335 -2.083335,0 -2.083335,0 0,-3.33335 z m 81.500005,-46.49998 0,-42.16667 -42.16667,0 -42.166665,0 0,42.16667 0,42.16666 42.166665,0 42.16667,0 0,-42.16666 z m -83.500005,38.87715 0,-2.45618 2.41667,2.41236 C 12.4125,90.160125 13.5,91.265405 13.5,91.289515 c 0,0.0241 -1.0875,0.0438 -2.416665,0.0438 l -2.41667,0 0,-2.45618 z m 6.60296,0.7708 c -1.03371,-0.24268 -2.547195,-1.13352 -3.28422,-1.93309 -0.37431,-0.40608 -0.917905,-1.2393 -1.207985,-1.8516 l -0.52742,-1.11327 0,-34.758635 0,-34.758645 0.622455,-1.25945 c 0.749685,-1.51689 1.71479,-2.46176 3.26428,-3.19584 l 1.113265,-0.52742 34.75,0 34.750005,0 1.113265,0.52742 c 1.54948,0.73408 2.514585,1.67895 3.26428,3.19584 l 0.622455,1.25945 0,34.758645 0,34.758635 -0.52743,1.11327 c -0.73401,1.54934 -1.67896,2.51458 -3.195665,3.26428 l -1.25928,0.62245 -13.467145,0.0464 -13.46715,0.0464 0,-1.1714 0,-1.1714 -7.833335,0 -7.833335,0 0,1.16668 0,1.16666 -13.125,-0.0168 c -7.24704,-0.009 -13.414775,-0.0848 -13.77204,-0.16864 z m 25.89704,-1.98129 0,-1.16667 8.833335,0 8.833335,0 0,1.17174 0,1.17174 12.467175,-0.0468 12.46717,-0.0467 1.259255,-0.62245 c 1.51668,-0.7497 2.46164,-1.71496 3.19564,-3.26428 l 0.52743,-1.11327 0,-33.758635 0,-33.758645 -0.622455,-1.25945 c -0.749695,-1.51689 -1.7148,-2.46176 -3.26428,-3.19584 l -1.113265,-0.52742 -33.750005,0 -33.75,0 -1.11327,0.52742 c -1.549485,0.73408 -2.51459,1.67895 -3.264275,3.19584 l -0.622455,1.25945 0,33.758645 0,33.758635 0.52742,1.11327 c 0.29008,0.6123 0.833675,1.44552 1.207985,1.8516 0.737025,0.79957 2.25051,1.69041 3.284215,1.93309 0.355875,0.0835 6.103295,0.15943 12.772045,0.16864 l 12.125,0.0168 0,-1.16667 z m 11.66667,-13.00831 C 44.57578,73.630945 37.82495,69.145275 34.37862,62.395875 c -1.62237,-3.1773 -2.276025,-5.87571 -2.276025,-9.39587 0,-3.515645 0.65391,-6.219015 2.269825,-9.383805 1.1876,-2.325935 3.16612,-4.921165 4.678735,-6.13711 l 0.63449,-0.510045 -0.77163,1.12708 c -3.59246,5.247325 -4.52396,11.962455 -2.499095,18.01579 1.111995,3.3243 2.65096,5.78525 5.2509,8.39665 3.29643,3.31097 7.33789,5.46831 12.21945,6.52277 1.422895,0.30736 2.22472,0.3668 4.948065,0.3668 2.723335,0 3.52516,-0.0594 4.94807,-0.3668 3.148065,-0.68001 6.169825,-1.92643 8.659945,-3.57207 1.338375,-0.88448 1.35112,-0.88887 0.88044,-0.30337 -1.176335,1.46332 -4.10692,3.6884 -6.45539,4.90133 -1.88224,0.97214 -4.953905,1.99891 -7.033065,2.35097 -1.976,0.33458 -5.35185,0.45522 -7,0.25016 z m 8.25264,-12.75447 c 3.59247,-5.24733 4.523975,-11.962455 2.499095,-18.015795 -1.111985,-3.324305 -2.65095,-5.78525 -5.250895,-8.396655 -3.296425,-3.31097 -7.33789,-5.46831 -12.21944,-6.52277 -2.45949,-0.53127 -7.436645,-0.53127 -9.896135,0 -3.148065,0.68001 -6.169825,1.92643 -8.659955,3.57207 -1.33837,0.88448 -1.35111,0.88887 -0.880435,0.30337 1.176335,-1.463315 4.106925,-3.688395 6.45539,-4.90133 1.88809,-0.97516 4.937245,-1.99355 7.1164,-2.376815 2.24937,-0.395615 6.25063,-0.395615 8.5,0 9.644645,1.696275 17.077655,8.684435 18.861245,17.73241 0.598945,3.038355 0.31572,7.044565 -0.7178,10.153265 -1.08263,3.25642 -3.72127,7.28201 -5.9446,9.06928 l -0.634495,0.51004 0.771625,-1.12707 z M 9.67983,11.29324 C 8.8345,10.8535 8.893425,9.49234 9.77225,9.15821 c 0.92781,-0.352755 1.871285,0.46186 1.63327,1.410185 -0.18624,0.74204 -1.019685,1.092115 -1.725695,0.724845 z" fill="url(#SvgjsLinearGradient1226)"></path></g><g id="SvgjsG1223" featureKey="nameFeature-0" transform="matrix(1.3351134574469765,0,0,1.3351134574469765,118.93191025265315,18.319094886951014)" fill="url(#SvgjsLinearGradient1230)"><path d="M25.4 38.4 l-12.2 0 l0 -28.8 l3.2 0 l0 -1.6 l-15.6 0 l0 1.6 l3.2 0 l0 28.8 l-3.2 0 l0 1.6 l26.4 0 l0 -9.2 l-1.8 0 l0 7.6 z M63.56 38.4 l0 1.6 l-16.56 0 l0 -1.6 l4.28 0 l-3.36 -10.4 l-11.08 0 l-3.4 10.4 l4.08 0 l0 1.6 l-8.72 0 l0 -1.6 l2.72 0 l9.88 -30.4 l9.56 0 l9.88 30.4 l2.72 0 z M47.400000000000006 26.4 l-5.04 -15.44 l-5 15.44 l10.04 0 z M88.36000000000001 40 l3.72 -3.72 l0 -9.36 l-3.32 -3.32 l3.32 -3.32 l0 -8.56 l-3.72 -3.72 l-23.6 0 l0 1.6 l3.2 0 l0 28.8 l-3.2 0 l0 1.6 l23.6 0 z M77.16000000000001 9.600000000000001 l5.72 0 l0 13.2 l-5.72 0 l0 -13.2 z M77.16000000000001 24.4 l5.72 0 l0 14 l-5.72 0 l0 -14 z M119.48000000000002 38.4 l-12.2 0 l0 -28.8 l3.2 0 l0 -1.6 l-15.6 0 l0 1.6 l3.2 0 l0 28.8 l-3.2 0 l0 1.6 l26.4 0 l0 -9.2 l-1.8 0 l0 7.6 z M146.88000000000002 40 l3.72 -3.72 l0 -9.36 l-3.32 -3.32 l3.32 -3.32 l0 -8.56 l-3.72 -3.72 l-23.6 0 l0 1.6 l3.2 0 l0 28.8 l-3.2 0 l0 1.6 l23.6 0 z M135.68 9.600000000000001 l5.72 0 l0 13.2 l-5.72 0 l0 -13.2 z M135.68 24.4 l5.72 0 l0 14 l-5.72 0 l0 -14 z"></path></g>
			</g>
		</svg>
	